<?xml version="1.0" encoding="iso-8859-1"?>
<!-- Generator: Adobe Illustrator 19.0.0, SVG Export Plug-In . SVG Version: 6.00 Build 0)  -->
<svg version="1.1" id="Layer_1" xmlns="http://www.w3.org/2000/svg" xmlns:xlink="http://www.w3.org/1999/xlink" x="0px" y="0px"
	 viewBox="0 0 512 512" style="enable-background:new 0 0 512 512;" xml:space="preserve">
<circle style="fill:#C8F4DE;" cx="256" cy="256" r="178.087"/>
<g>
	<path style="fill:#4A7DBA;" d="M402.152,154.233H287.801c-14.051,0-25.441,11.39-25.441,25.441s11.39,25.441,25.441,25.441h50.882
		c14.051,0,25.441,11.39,25.441,25.441s-11.39,25.441-25.441,25.441h-25.441v0.095c-13.174,0.961-23.571,11.927-23.571,25.346
		c0,13.42,10.397,24.386,23.571,25.346v0.095h9.541h66.783h37.133c4.799-16.124,7.389-33.2,7.389-50.882
		C434.087,218.156,422.275,183.08,402.152,154.233z"/>
	<path style="fill:#4A7DBA;" d="M189.694,369.633c10.46,0,18.94-8.479,18.94-18.94c0-10.46-8.479-18.94-18.94-18.94h-37.879
		c-10.46,0-18.94-8.479-18.94-18.94s8.479-18.94,18.94-18.94h18.94v-0.07c9.807-0.716,17.547-8.88,17.547-18.869
		s-7.74-18.154-17.547-18.869v-0.07H79.026c0,43.198,15.384,82.8,40.968,113.636h69.7V369.633z"/>
</g>
<path d="M437.757,308.644c0.345-1.191,0.674-2.389,0.997-3.588c0.222-0.827,0.445-1.653,0.656-2.482
	c0.412-1.622,0.8-3.252,1.171-4.891c0.147-0.651,0.287-1.304,0.427-1.958c0.336-1.567,0.653-3.14,0.951-4.722
	c0.075-0.397,0.157-0.795,0.229-1.193c0.357-1.971,0.679-3.955,0.974-5.947c0.069-0.469,0.131-0.939,0.197-1.409
	c0.235-1.673,0.449-3.354,0.639-5.041c0.049-0.428,0.102-0.857,0.148-1.286c0.216-2.029,0.402-4.067,0.552-6.115
	c0.027-0.357,0.045-0.717,0.068-1.074c0.116-1.71,0.208-3.426,0.278-5.148c0.022-0.547,0.045-1.092,0.062-1.638
	c0.066-2.045,0.11-4.095,0.11-6.155c0-1.471-0.022-2.941-0.056-4.407c-0.009-0.406-0.022-0.811-0.035-1.217
	c-0.033-1.146-0.077-2.292-0.131-3.436c-0.017-0.344-0.03-0.688-0.049-1.032c-0.16-3.051-0.394-6.089-0.698-9.114
	c-0.01-0.095-0.02-0.189-0.03-0.284c-3.255-31.845-14.471-62.169-32.937-88.643c-0.242-0.347-0.505-0.672-0.78-0.986
	c-34.303-48.428-90.771-80.1-154.5-80.1c-104.334,0-189.217,84.883-189.217,189.217c0,1.495,0.021,2.987,0.057,4.479
	c0.014,0.643,0.042,1.283,0.063,1.926c0.028,0.806,0.055,1.611,0.092,2.415c0.04,0.869,0.09,1.735,0.142,2.601
	c0.031,0.518,0.063,1.035,0.099,1.552c0.072,1.071,0.155,2.138,0.246,3.203c0.018,0.205,0.037,0.408,0.055,0.612
	c1.821,20.615,6.96,40.288,14.881,58.484c0.107,0.247,0.216,0.493,0.324,0.74c0.394,0.896,0.792,1.79,1.2,2.679
	c0.362,0.791,0.732,1.577,1.105,2.364c0.183,0.384,0.362,0.771,0.547,1.154c6.615,13.726,14.891,26.685,24.721,38.532
	c0.305,0.368,0.637,0.706,0.983,1.028c34.737,41.213,86.711,67.447,144.703,67.447c85.325,0,157.628-56.774,181.148-134.525
	c0.077-0.209,0.154-0.42,0.218-0.636C437.504,309.586,437.622,309.113,437.757,308.644z M150.702,342.885h37.879
	c4.305,0,7.809,3.503,7.809,7.809c0,4.306-3.503,7.809-7.809,7.809h-64.274c-5.542-7.103-10.524-14.664-14.876-22.617
	c-0.234-0.43-0.465-0.861-0.696-1.294c-0.582-1.087-1.155-2.179-1.714-3.281c-0.658-1.302-1.304-2.61-1.927-3.929
	c-0.187-0.394-0.371-0.789-0.554-1.184c-8.529-18.423-13.689-38.35-15.098-58.753c-0.007-0.106-0.013-0.21-0.02-0.316h78.965
	c0.147,0.017,0.295,0.03,0.443,0.041c4.054,0.296,7.227,3.708,7.227,7.768s-3.174,7.473-7.227,7.768
	c-0.148,0.011-0.296,0.024-0.442,0.041H150.7c-16.58,0-30.07,13.489-30.07,30.07C120.631,329.397,134.122,342.885,150.702,342.885z
	 M256,422.954c-42.486,0-81.309-15.961-110.809-42.19h43.391c16.58,0,30.07-13.489,30.07-30.07c0-16.581-13.489-30.07-30.07-30.07
	h-37.879c-4.305,0-7.809-3.503-7.809-7.809c0-4.306,3.503-7.809,7.809-7.809h18.94c0.809,0,1.597-0.087,2.356-0.254
	c14.88-1.865,26.321-14.672,26.321-29.817c0-15.133-11.423-27.931-26.285-29.812c-0.77-0.168-1.572-0.257-2.393-0.257H89.423
	C95.171,157.977,167.681,89.04,256,89.04c48.565,0,92.349,20.85,122.886,54.062h-91.084c-20.165,0-36.571,16.406-36.571,36.571
	s16.406,36.571,36.571,36.571h50.883c7.89,0,14.309,6.42,14.309,14.309c0,7.891-6.42,14.31-14.309,14.31h-25.441
	c-0.859,0-1.696,0.099-2.5,0.287c-18.19,2.182-32.203,17.801-32.203,36.285c0,18.472,13.993,34.084,32.166,36.281
	c0.815,0.19,1.663,0.29,2.536,0.29h9.54c6.146,0,11.13-4.984,11.13-11.13s-4.984-11.13-11.13-11.13h-8.099
	c-0.209-0.027-0.42-0.049-0.631-0.065c-7.431-0.541-13.251-6.798-13.251-14.246c0-7.447,5.82-13.705,13.251-14.246
	c0.214-0.017,0.427-0.038,0.637-0.066h23.995c20.165,0,36.57-16.406,36.57-36.571s-16.405-36.57-36.57-36.57h-50.883
	c-7.891,0-14.31-6.42-14.31-14.31c0-7.89,6.42-14.31,14.31-14.31H396.15c10.368,15.977,18.086,33.825,22.512,52.923
	c0.006,0.023,0.011,0.048,0.017,0.072c0.284,1.227,0.55,2.46,0.807,3.696c0.081,0.396,0.159,0.794,0.238,1.191
	c0.354,1.773,0.676,3.558,0.973,5.352c0.129,0.785,0.264,1.567,0.383,2.354c0.127,0.839,0.24,1.684,0.355,2.528
	c0.134,0.992,0.258,1.985,0.374,2.98c0.081,0.696,0.167,1.391,0.239,2.089c0.17,1.646,0.321,3.296,0.443,4.95
	c0.036,0.482,0.06,0.967,0.092,1.449c0.089,1.36,0.163,2.721,0.219,4.086c0.022,0.526,0.043,1.053,0.06,1.581
	c0.057,1.79,0.096,3.583,0.096,5.382c0,1.573-0.027,3.143-0.07,4.712c-0.013,0.488-0.038,0.974-0.056,1.461
	c-0.04,1.086-0.085,2.172-0.146,3.256c-0.031,0.565-0.07,1.129-0.108,1.692c-0.067,1.015-0.141,2.029-0.227,3.041
	c-0.048,0.575-0.099,1.149-0.154,1.722c-0.097,1.018-0.205,2.036-0.321,3.051c-0.062,0.55-0.121,1.1-0.189,1.647
	c-0.138,1.113-0.292,2.225-0.452,3.335c-0.063,0.44-0.118,0.88-0.185,1.319c-0.224,1.473-0.469,2.942-0.731,4.407
	c-0.121,0.672-0.257,1.341-0.386,2.011c-0.154,0.801-0.307,1.603-0.473,2.402c-0.176,0.844-0.362,1.683-0.551,2.522
	c-0.131,0.589-0.265,1.176-0.403,1.763c-0.111,0.472-0.23,0.942-0.345,1.411h-28.598c-6.146,0-11.13,4.984-11.13,11.13
	c0,6.146,4.984,11.13,11.13,11.13h21.443C386.339,379.452,326.157,422.954,256,422.954z"/>
<path d="M366.446,302.622c-0.278-0.678-0.623-1.323-1.024-1.924c-0.4-0.613-0.867-1.181-1.38-1.693
	c-0.512-0.512-1.08-0.979-1.692-1.38c-0.601-0.4-1.247-0.746-1.926-1.024c-0.668-0.278-1.368-0.489-2.08-0.633
	c-1.436-0.29-2.916-0.29-4.341,0c-0.712,0.145-1.414,0.355-2.093,0.633c-0.669,0.278-1.313,0.624-1.914,1.024
	c-0.613,0.401-1.181,0.868-1.693,1.38s-0.979,1.08-1.391,1.693c-0.401,0.601-0.735,1.247-1.013,1.924
	c-0.278,0.669-0.501,1.369-0.633,2.081c-0.146,0.712-0.223,1.447-0.223,2.17c0,2.938,1.19,5.799,3.261,7.869
	c0.512,0.512,1.08,0.979,1.693,1.391c0.601,0.4,1.245,0.746,1.914,1.024c0.679,0.278,1.38,0.489,2.093,0.633
	c0.712,0.145,1.447,0.211,2.17,0.211c0.722,0,1.458-0.068,2.17-0.211c0.712-0.145,1.414-0.355,2.08-0.633
	c0.679-0.278,1.325-0.624,1.926-1.024c0.612-0.412,1.18-0.879,1.692-1.391c2.07-2.07,3.262-4.932,3.262-7.869
	c0-0.723-0.078-1.459-0.223-2.17C366.948,303.992,366.724,303.291,366.446,302.622z"/>
<path d="M277.264,488.783c-14.068,1.267-28.504,1.264-42.524,0c-6.14-0.55-11.532,3.965-12.084,10.087
	c-0.551,6.122,3.965,11.532,10.088,12.084c7.676,0.691,15.501,1.043,23.258,1.043c7.745,0,15.57-0.351,23.259-1.043
	c6.122-0.551,10.64-5.96,10.087-12.083C288.797,492.75,283.391,488.228,277.264,488.783z"/>
<path d="M233.726,23.257c0.334,0,0.672-0.016,1.011-0.046c14.063-1.266,28.502-1.266,42.523,0
	c6.124,0.54,11.532-3.965,12.084-10.088c0.551-6.122-3.965-11.532-10.088-12.084c-15.341-1.381-31.13-1.384-46.516,0
	C226.618,1.59,222.1,7,222.652,13.123C223.174,18.907,228.029,23.257,233.726,23.257z"/>
<path d="M390.807,446.965c-5.76,4.056-11.796,7.909-17.939,11.457c-6.132,3.542-12.486,6.841-18.887,9.805
	c-5.579,2.583-8.005,9.2-5.422,14.778c1.882,4.063,5.906,6.455,10.108,6.455c1.565,0,3.157-0.332,4.67-1.033
	c7.004-3.245,13.955-6.853,20.661-10.726c6.717-3.878,13.32-8.094,19.623-12.533c5.026-3.539,6.233-10.483,2.694-15.509
	S395.834,443.425,390.807,446.965z"/>
<path d="M114.796,67.061c2.214,0,4.45-0.659,6.398-2.03c5.763-4.058,11.798-7.912,17.937-11.457
	c6.142-3.545,12.496-6.843,18.888-9.805c5.579-2.583,8.005-9.2,5.422-14.778c-2.584-5.576-9.2-8.006-14.778-5.422
	c-6.993,3.24-13.945,6.849-20.661,10.726c-6.714,3.876-13.315,8.093-19.622,12.533c-5.027,3.539-6.233,10.483-2.694,15.509
	C107.852,65.414,111.297,67.061,114.796,67.061z"/>
<path d="M483.006,348.554c-5.582-2.583-12.196-0.156-14.777,5.423c-2.96,6.391-6.259,12.747-9.806,18.891
	c-3.544,6.137-7.397,12.172-11.455,17.936c-3.539,5.026-2.333,11.97,2.694,15.509c1.948,1.371,4.184,2.03,6.398,2.03
	c3.499,0,6.943-1.646,9.111-4.724c4.441-6.308,8.657-12.909,12.532-19.621c3.879-6.718,7.489-13.672,10.728-20.666
	C491.012,357.752,488.585,351.136,483.006,348.554z"/>
<path d="M28.993,163.44c1.514,0.701,3.105,1.033,4.67,1.033c4.202,0,8.225-2.391,10.108-6.455
	c2.965-6.401,6.264-12.758,9.806-18.892c3.544-6.14,7.397-12.173,11.454-17.933c3.541-5.027,2.335-11.97-2.691-15.509
	c-5.029-3.542-11.971-2.333-15.509,2.691c-4.44,6.305-8.656,12.907-12.533,19.621c-3.873,6.708-7.483,13.661-10.728,20.665
	C20.986,154.24,23.414,160.856,28.993,163.44z"/>
<path d="M510.957,232.737c-0.552-6.123-5.976-10.628-12.084-10.088c-6.123,0.552-10.638,5.963-10.087,12.084
	c0.632,7.016,0.953,14.168,0.953,21.262c0,7.095-0.321,14.246-0.953,21.26c-0.551,6.122,3.965,11.532,10.087,12.084
	c0.339,0.03,0.677,0.046,1.012,0.046c5.695,0,10.551-4.35,11.073-10.133c0.691-7.676,1.043-15.5,1.043-23.258
	C512,248.237,511.649,240.414,510.957,232.737z"/>
<path d="M23.215,277.259c-0.633-7.022-0.954-14.176-0.954-21.261c0-7.085,0.321-14.237,0.954-21.26
	c0.551-6.122-3.965-11.532-10.088-12.084c-6.126-0.552-11.532,3.965-12.084,10.088C0.351,240.423,0,248.248,0,255.997
	c0,7.75,0.351,15.576,1.044,23.259c0.522,5.782,5.377,10.133,11.073,10.133c0.335,0,0.672-0.016,1.012-0.046
	C19.251,288.791,23.767,283.381,23.215,277.259z"/>
<path d="M458.425,139.128c3.543,6.136,6.841,12.492,9.804,18.888c1.882,4.064,5.905,6.456,10.108,6.456
	c1.565,0,3.157-0.332,4.669-1.033c5.579-2.583,8.006-9.2,5.423-14.777c-3.242-7-6.85-13.952-10.725-20.664
	c-3.872-6.707-8.091-13.31-12.534-19.622c-3.539-5.028-10.484-6.233-15.509-2.694c-5.027,3.539-6.233,10.483-2.694,15.509
	C451.03,126.96,454.884,132.995,458.425,139.128z"/>
<path d="M53.576,372.867c-3.544-6.14-6.842-12.494-9.804-18.887c-2.582-5.577-9.202-8.006-14.777-5.423
	c-5.579,2.583-8.006,9.2-5.423,14.777c3.24,6.997,6.849,13.948,10.725,20.663c3.876,6.714,8.093,13.316,12.535,19.623
	c2.167,3.079,5.611,4.723,9.11,4.723c2.214,0,4.451-0.66,6.399-2.031c5.027-3.539,6.232-10.483,2.691-15.509
	C60.975,385.039,57.12,379.005,53.576,372.867z"/>
<path d="M353.98,43.768c6.396,2.962,12.751,6.261,18.891,9.806c6.14,3.544,12.173,7.397,17.933,11.454
	c1.949,1.372,4.185,2.031,6.399,2.031c3.499,0,6.943-1.646,9.111-4.723c3.539-5.027,2.334-11.97-2.692-15.509
	c-6.305-4.44-12.907-8.656-19.621-12.533s-13.667-7.486-20.666-10.728c-5.579-2.583-12.193-0.156-14.777,5.423
	C345.974,34.568,348.403,41.183,353.98,43.768z"/>
<path d="M158.021,468.226c-6.393-2.961-12.748-6.26-18.889-9.806c-6.137-3.544-12.172-7.397-17.936-11.455
	c-5.025-3.538-11.97-2.333-15.509,2.694c-3.539,5.027-2.333,11.97,2.694,15.509c6.308,4.441,12.909,8.657,19.62,12.532
	c6.717,3.878,13.669,7.487,20.666,10.728c1.514,0.701,3.104,1.033,4.669,1.033c4.203,0,8.227-2.391,10.108-6.456
	C166.026,477.425,163.598,470.809,158.021,468.226z"/>
<g>
</g>
<g>
</g>
<g>
</g>
<g>
</g>
<g>
</g>
<g>
</g>
<g>
</g>
<g>
</g>
<g>
</g>
<g>
</g>
<g>
</g>
<g>
</g>
<g>
</g>
<g>
</g>
<g>
</g>
</svg>
